# xmcd
#
# Track frame offsets: 
#        150
#        15905
#        30255
#        45502
#        64845
#        80815
#        97370
#        112037
#        130345
#        142647
#        157342
#        170402
#        184337
#        194580
#        211775
#        223595
#
# Disc length: 3175 seconds
#
# Revision: 1
# Processed by: cddbd v1.5.2PL0 Copyright (c) Steve Scherf et al.
# Submitted via: ExactAudioCopy v0.99pb5
#
DISCID=e50c6510
DTITLE=Crystal Gayle - Best Of The Best
DYEAR=1996
DGENRE=Country
TTITLE0=Crystal Gayle - Long And Lasting Love
TTITLE1=Crystal Gayle - You Never Give Up On Me
TTITLE2=Crystal Gayle - Ready For The Times To Get Better
TTITLE3=Crystal Gayle - Cry
TTITLE4=Crystal Gayle - Like We Never Said Good-Bye
TTITLE5=Crystal Gayle - When I Dream
TTITLE6=Crystal Gayle - Living In These Troubled Times
TTITLE7=Crystal Gayle - Hlf The Way
TTITLE8=Crystal Gayle - Don't It Make My Brown Eyes Blue
TTITLE9=Crystal Gayle - If You Never Chage Your Mind
TTITLE10=Crystal Gayle - Talking In Your Sleep
TTITLE11=Crystal Gayle - Nobody's Angel
TTITLE12=Crystal Gayle - Beyond You
TTITLE13=Crystal Gayle - Too Many Lovers
TTITLE14=Crystal Gayle - Always
TTITLE15=Crystal Gayle - He Is Beautiful
EXTD=
EXTT0=
EXTT1=
EXTT2=
EXTT3=
EXTT4=
EXTT5=
EXTT6=
EXTT7=
EXTT8=
EXTT9=
EXTT10=
EXTT11=
EXTT12=
EXTT13=
EXTT14=
EXTT15=
PLAYORDER=
